<svg xmlns="http://www.w3.org/2000/svg" xml:space="preserve" viewBox="0 0 1000 1000"><path fill="none" d="M488 1001H1V1h1000v1000H488m9-521.5c0 10.331.119 20.665-.065 30.992-.064 3.547 1.196 4.702 4.65 4.566 5.491-.216 10.996-.058 16.495-.058h19.543V327.233h-40.677v69.474h-72.122v-69.35H385.38v187.408h39.678v-83.47H497V479.5M635.5 515h59.144v-34.299H591.24v-47.768H683c0-9.766-.212-19.072.094-28.36.144-4.38-1.174-5.701-5.614-5.67-26.994.193-53.99.097-80.986.097h-5.133v-39.31h98.392v-32.417H552.297V515H635.5m353.508-131.735c.137-9.879-2.759-19.118-7.768-27.313-11.711-19.157-29.427-27.96-51.71-27.953-25.65.007-51.3.001-76.952.001h-5.286v186.682h39.922V447c5.276 0 10.093.085 14.907-.016 13.748-.288 27.573.14 41.218-1.216 12.607-1.255 23.539-7.401 32.154-16.873 7.263-7.983 11.42-17.69 13.08-28.25.847-5.382.369-10.972.435-17.38m-686.309-45.97c-9.487-.095-18.978-.408-28.458-.205-6.016.128-9.214 3.902-9.23 9.975-.036 13.163-.222 26.33.098 39.486.12 4.947-1.143 6.697-6.357 6.568-14.154-.348-28.322-.138-42.485-.11-6.416.013-9.235 2.905-9.26 9.437-.028 7.164-.017 14.329-.005 21.493.016 8.673 3.336 12.047 11.904 12.057 13.663.016 27.327.12 40.987-.068 3.924-.054 5.238 1.206 5.18 5.157-.194 13.327-.1 26.658-.06 39.988.018 5.794 3.483 9.798 8.824 9.882 9.161.145 18.33.182 27.49-.013 5.89-.125 8.65-3.226 8.664-9.129.029-13.496.15-26.994-.073-40.487-.069-4.192 1.32-5.466 5.45-5.405 13.993.207 27.99.138 41.986.053 7.304-.044 10.624-3.47 10.642-10.641.02-7.664.027-15.329-.003-22.993-.026-6.675-2.66-9.334-9.194-9.338-14.162-.007-28.327-.127-42.486.067-4.801.065-6.446-1.804-6.38-6.496.192-13.326-.02-26.658.113-39.987.049-4.84-1.767-7.88-7.347-9.29M128.5 327H65.347v33.278h55.97v154.484h39.727V359.917h56.65V327H128.5m685 153h-68.731V328.383h-38.537V514.74h130.475V480H813.5M12 341.505v173.197h40.714V327.299H11.999v14.206m684.196 217.097-.45 7.06c-7.534-9.86-17.66-11.004-27.983-9.285-7.013 1.168-12.945 5.174-17.96 10.874-9.728 11.056-10.66 24.147-9.63 37.573.666 8.661 3.72 16.908 9.76 23.56 6.103 6.719 14.299 8.924 22.91 9.546 8.662.626 16.467-1.938 23.026-8.278.539 16.028-3.107 23.71-12.835 25.08-5.118.72-11.227.738-15.602-1.473-3.983-2.013-6.227-7.468-9.659-11.956h-17.479c-.62 7.575 2.549 16.93 7.503 21.877 14.122 14.102 39.787 13.801 54.462 4.932 10.942-6.612 15.404-17.38 15.611-29.517.433-25.318.136-50.648.119-75.974-.001-1.439-.175-2.877-.281-4.517-7.144 0-13.947 0-21.512.498m-210.087-2.601c-2.164 0-4.328.02-6.492-.005-9.86-.114-16.957 4.616-22.728 12.298-10.67 14.2-11.045 43.873 1.499 59.582 8.911 11.161 29.21 15.372 40.427 6.838 1.898-1.444 3.858-2.805 6.047-4.39l.301 6.416h20.568V529.324H504.7v37.995c-4.93-6.68-10.724-9.963-18.592-11.318m-204.115 76.488c.592.585 1.136 1.23 1.783 1.746 8.509 6.78 30.24 6.308 37.378.26 1.454-1.231 3.454-1.82 5.6-2.905l.445 5.066h19.794c0-19.397.536-38.467-.225-57.485-.383-9.576-5.322-17.662-15.213-20.837-11.863-3.807-24.124-3.862-35.852.002-11.392 3.753-17.494 12.882-16.293 25.663 5.218 0 10.505-.129 15.78.054 2.721.094 3.853-.862 4.983-3.423 1.162-2.632 3.353-6.087 5.699-6.646 4.515-1.076 9.627-1.111 14.152-.083 2.299.523 5.31 4.282 5.33 6.602.018 2.138-3.175 5.526-5.58 6.232-6.83 2.005-13.992 2.86-21 4.284-6.757 1.372-13.343 3.24-17.78 9.098-6.25 8.25-7.097 23.51.999 32.372m281.063-56.746c-4.981 11.08-5.163 22.698-2.862 34.258 1.845 9.267 5.769 17.662 14.333 23.06 8.297 5.232 17.387 6.244 26.899 5.977 14.839-.416 28.85-9.738 32.294-25.81h-21.896c-3.51 7.542-10.757 10.529-19.062 7.789-7.309-2.411-12.545-10.807-11.017-18.017h53.834c-.983-7.335-1.227-13.977-2.86-20.258-2.752-10.58-7.73-20.288-18.83-24.059-6.048-2.054-12.855-2.502-19.329-2.552-14.07-.107-24.837 5.91-31.504 19.612m234.033 46.784c6.554-10.488 7.742-21.75 6.065-33.885-1.63-11.792-7.461-20.44-16.936-26.956-9.901-6.809-21.349-6.825-32.373-5.277-9.837 1.38-18.278 6.512-24.116 15.288-7.343 11.038-8.024 23.356-6.3 35.648 1.356 9.668 5.795 18.85 14.259 24.39 17.086 11.181 44.82 11.562 59.401-9.208M271 611.626c-.736-3.116-.95-6.486-2.312-9.3-3.468-7.16-10.588-9.22-17.49-11.3-8.082-2.434-16.3-4.455-24.26-7.23-2.03-.707-3.887-3.37-4.679-5.551-.398-1.098 1.398-3.686 2.837-4.643 8.113-5.393 20.082-1.124 23.425 8.1h20.491c-1.013-10.675-5.188-19.517-15.218-23.085-12.131-4.315-24.939-3.99-37.382-.545-17.84 4.938-19.984 28.722-8.212 37.377 4.592 3.376 10.265 5.491 15.709 7.447 7.307 2.625 14.966 4.277 22.253 6.95 1.723.633 3.35 3.596 3.545 5.628.14 1.468-1.839 3.78-3.447 4.633-2.665 1.413-5.737 2.26-8.735 2.8-6.658 1.202-14.035-3.37-16.66-9.747-.39-.943-1.836-2.027-2.82-2.054-6.614-.181-13.236-.094-20.157-.094.954 10.582 5.297 18.315 14.398 23.038 12.646 6.563 25.883 6.343 39.255 3.047 13.38-3.298 19.459-11.155 19.459-25.471m105-4.126c0-5.493-.376-11.022.133-16.468.337-3.608 1.38-7.405 3.108-10.572 2.882-5.28 10.815-7.754 16.749-5.975 6.734 2.019 8.948 5.121 8.989 13.202.074 14.65.02 29.3.021 43.949v5.079h21.016c0-19.99-.033-39.691.013-59.392.028-11.696-11.76-21.604-24.155-21.523-10.784.07-19.865 2.587-27.161 12.576v-9.972h-19.456v78.285H376V607.5m178-20v-29.095h-20.738v78.278H554V587.5m-20.996-55.765v16.963h20.645v-19.693c-6.153 0-11.959-.082-17.758.08-.97.026-1.911 1.103-2.887 2.65z"/><path fill="#58A6FF" d="M497 479v-47.705h-71.943v83.47H385.38V327.356h39.445v69.35h72.122v-69.473h40.677V515H518.08c-5.499 0-11.004-.158-16.494.058-3.455.136-4.715-1.02-4.651-4.566.184-10.327.065-20.66.065-31.492zM635 515h-82.703V327.273h137.456v32.417h-98.392V399h5.133c26.996 0 53.992.096 80.986-.096 4.44-.032 5.758 1.29 5.614 5.669-.306 9.288-.093 18.594-.093 28.36h-91.76V480.7h103.403v34.3H635zM989.035 383.721c-.093 5.952.385 11.542-.462 16.924-1.66 10.56-5.817 20.267-13.08 28.25-8.615 9.472-19.547 15.618-32.154 16.873-13.645 1.357-27.47.928-41.218 1.216-4.814.1-9.631.016-14.907.016v67.682h-39.922V328h5.286c25.651 0 51.302.006 76.953-.001 22.282-.006 39.998 8.796 51.709 27.953 5.01 8.195 7.905 17.434 7.795 27.77m-37.067 16.473c.677-5.474 1.804-10.938 1.925-16.424.171-7.775-6.118-17.566-14.765-19.673-6.584-1.605-13.412-2.66-20.177-2.97-10.561-.483-21.161-.128-31.6-.128v54c13.493 0 26.666.543 39.77-.176 10.093-.555 19.494-3.745 24.847-14.63z"/><path fill="#BF1E2D" d="M303.046 337.543c5.233 1.164 7.049 4.203 7 9.043-.133 13.329.079 26.66-.112 39.987-.067 4.692 1.578 6.561 6.379 6.496 14.16-.194 28.324-.074 42.486-.067 6.533.004 9.168 2.663 9.194 9.338.03 7.664.022 15.329.003 22.993-.018 7.171-3.338 10.597-10.642 10.64-13.995.086-27.993.155-41.986-.052-4.13-.061-5.519 1.213-5.45 5.405.222 13.493.102 26.991.073 40.487-.013 5.903-2.773 9.004-8.664 9.13-9.16.194-18.329.157-27.49.012-5.34-.084-8.806-4.088-8.824-9.882-.04-13.33-.134-26.661.06-39.988.058-3.95-1.256-5.211-5.18-5.157-13.66.188-27.324.084-40.987.068-8.568-.01-11.888-3.384-11.904-12.057-.012-7.164-.023-14.329.005-21.493.025-6.532 2.844-9.424 9.26-9.437 14.163-.028 28.331-.238 42.485.11 5.214.129 6.477-1.621 6.357-6.568-.32-13.155-.134-26.323-.098-39.486.016-6.073 3.214-9.847 9.23-9.975 9.48-.203 18.971.11 28.805.453z"/><path fill="#58A6FF" d="M129 327h88.694v32.917h-56.65v154.845h-39.727V360.278h-55.97V327H129zM814 480h22.707v34.74H706.232V328.383h38.537V480H814zM12 341.007V327.3h40.714v187.403H11.999V341.007z"/><path fill="#8B949E" d="M696.576 558.353c7.184-.249 13.987-.249 21.13-.249.107 1.64.281 3.078.282 4.517.017 25.326.314 50.656-.119 75.974-.207 12.138-4.67 22.905-15.61 29.517-14.676 8.869-40.34 9.17-54.463-4.932-4.954-4.946-8.123-14.302-7.503-21.877h17.48c3.43 4.488 5.675 9.943 9.658 11.956 4.375 2.211 10.484 2.193 15.602 1.472 9.728-1.368 13.374-9.05 12.835-25.08-6.56 6.341-14.364 8.905-23.026 8.28-8.611-.623-16.807-2.828-22.91-9.547-6.04-6.652-9.094-14.899-9.76-23.56-1.03-13.426-.098-26.517 9.63-37.573 5.015-5.7 10.947-9.706 17.96-10.874 10.323-1.719 20.449-.575 27.983 9.284.17-2.658.31-4.858.83-7.308m-.622 48.597c.015-5.357.19-10.72.008-16.07-.268-7.873-6.85-15.203-13.525-15.924-11.939-1.29-17.938 5.545-19.27 13.838-.837 5.222-.632 10.738-.053 16.03.887 8.118 6.593 14.24 13.183 15.173 8.908 1.26 13.97-1.532 18.287-10.081.369-.73.758-1.45 1.37-2.966zM486.558 556.004c7.418 1.352 13.211 4.635 18.143 11.315v-37.995h21.029V636.74h-20.568l-.301-6.416c-2.189 1.585-4.15 2.946-6.047 4.39-11.218 8.534-31.516 4.323-40.427-6.838-12.544-15.71-12.17-45.381-1.5-59.582 5.772-7.682 12.868-12.412 22.73-12.298 2.163.025 4.327.005 6.94.008m.157 64.996c6.374.574 11.04-1.943 14.413-7.422 6.077-9.87 4.926-20.207 1.37-30.236-1.989-5.605-7.118-9.235-13.384-9.206-6.01.027-11.744 1.752-14.636 7.88-4.552 9.643-5.033 19.402-.467 29.258 2.408 5.197 5.637 9.23 12.704 9.726zM281.726 632.229c-7.83-8.602-6.981-23.862-.732-32.112 4.437-5.858 11.023-7.726 17.78-9.098 7.008-1.424 14.17-2.279 21-4.284 2.405-.706 5.598-4.094 5.58-6.232-.02-2.32-3.031-6.08-5.33-6.602-4.525-1.028-9.637-.993-14.152.083-2.346.559-4.537 4.014-5.699 6.646-1.13 2.56-2.262 3.517-4.983 3.423-5.275-.183-10.562-.054-15.78-.054-1.2-12.781 4.901-21.91 16.293-25.663 11.728-3.864 23.989-3.809 35.852-.002 9.891 3.175 14.83 11.261 15.213 20.837.76 19.018.225 38.088.225 57.485H327.2l-.446-5.066c-2.145 1.086-4.145 1.674-5.6 2.906-7.137 6.047-28.868 6.52-37.377-.261-.647-.516-1.191-1.161-2.05-2.006m36.634-12.13c6.617-5.109 8.95-11.723 7.176-19.947-7.393 2.016-14.645 3.755-21.731 6.014-4.49 1.431-5.781 5.35-5.814 9.769-.03 4.083 1.956 7.043 5.936 6.949 4.65-.11 9.271-1.439 14.433-2.784zM563.245 575.406c6.478-13.365 17.244-19.382 31.315-19.275 6.474.05 13.281.498 19.33 2.552 11.1 3.77 16.077 13.48 18.829 24.06 1.633 6.28 1.877 12.922 2.86 20.257h-53.834c-1.528 7.21 3.708 15.606 11.017 18.017 8.305 2.74 15.553-.247 19.062-7.788h21.896c-3.443 16.071-17.455 25.393-32.294 25.81-9.512.266-18.602-.746-26.9-5.977-8.563-5.4-12.487-13.794-14.332-23.061-2.301-11.56-2.12-23.178 3.05-34.595m46.865 13.578c.591-1.726 1.956-3.613 1.637-5.15-1.353-6.515-10.373-12.156-17.196-10.743-5.546 1.148-12.989 7.24-12.157 15.906 8.9 0 17.845 0 27.716-.013zM797.018 622.89c-14.51 20.407-42.244 20.026-59.33 8.845-8.464-5.54-12.903-14.722-14.26-24.39-1.723-12.292-1.042-24.61 6.3-35.648 5.839-8.776 14.28-13.907 24.117-15.288 11.024-1.548 22.472-1.532 32.373 5.277 9.475 6.517 15.306 15.164 16.936 26.956 1.677 12.135.489 23.397-6.136 34.247M745 599.336c.344 2.756.525 5.544 1.062 8.262 1.475 7.474 7.79 12.863 15.479 13.398 9.19.64 15.64-2.995 18.309-10.776 2.656-7.746 3.215-15.589.455-23.554-2.814-8.12-7.355-12.167-14.905-12.663-8.36-.55-14.803 2.622-17.77 10.102-1.754 4.418-1.81 9.51-2.63 15.231zM271 612.087c0 13.855-6.08 21.712-19.459 25.01-13.372 3.296-26.609 3.516-39.255-3.047-9.1-4.723-13.444-12.456-14.398-23.038 6.921 0 13.543-.087 20.157.094.984.027 2.43 1.111 2.82 2.054 2.625 6.376 10.002 10.95 16.66 9.748 2.998-.542 6.07-1.388 8.735-2.801 1.608-.853 3.588-3.165 3.447-4.633-.195-2.032-1.822-4.995-3.545-5.627-7.287-2.674-14.946-4.326-22.253-6.951-5.444-1.956-11.117-4.07-15.709-7.447-11.772-8.655-9.629-32.439 8.212-37.377 12.443-3.444 25.25-3.77 37.382.545 10.03 3.568 14.205 12.41 15.218 23.084h-20.49c-3.344-9.223-15.313-13.492-23.426-8.099-1.44.957-3.235 3.545-2.837 4.643.792 2.18 2.65 4.844 4.68 5.551 7.958 2.775 16.177 4.796 24.258 7.23 6.903 2.08 14.023 4.14 17.491 11.3 1.363 2.814 1.576 6.184 2.312 9.76zM376 608v28.69h-20.743v-78.286h19.456v9.972c7.296-9.99 16.377-12.505 27.16-12.576 12.396-.08 24.184 9.827 24.156 21.523-.046 19.7-.013 39.401-.013 59.392H405v-5.08c0-14.649.053-29.299-.021-43.948-.041-8.08-2.255-11.183-8.99-13.202-5.933-1.78-13.866.695-16.748 5.975-1.728 3.167-2.77 6.964-3.108 10.572-.51 5.446-.133 10.975-.133 16.968zM554 588v48.683h-20.738v-78.278H554V588zM533.015 531.258c.965-1.07 1.906-2.147 2.876-2.174 5.8-.16 11.605-.08 17.758-.08v19.694h-20.645c0-5.748 0-11.356.01-17.44z"/><path fill="none" d="M951.792 400.543c-5.177 10.536-14.578 13.726-24.671 14.28-13.104.72-26.277.176-39.77.176V361c10.439 0 21.039-.355 31.6.128 6.765.31 13.593 1.365 20.177 2.97 8.647 2.107 14.936 11.898 14.765 19.673-.121 5.486-1.248 10.95-2.101 16.772zM695.837 607.345c-.496 1.12-.885 1.84-1.254 2.571-4.316 8.549-9.38 11.341-18.287 10.081-6.59-.932-12.296-7.055-13.183-15.172-.58-5.293-.784-10.81.054-16.031 1.331-8.293 7.33-15.127 19.269-13.838 6.674.72 13.257 8.05 13.525 15.924.182 5.35.007 10.713-.124 16.465zM486.283 621c-6.636-.495-9.865-4.529-12.273-9.726-4.566-9.856-4.085-19.615.467-29.259 2.892-6.127 8.625-7.852 14.636-7.88 6.266-.028 11.395 3.602 13.383 9.207 3.557 10.03 4.708 20.365-1.369 30.236-3.373 5.48-8.039 7.996-14.844 7.421zM318.096 620.372c-4.898 1.073-9.519 2.401-14.169 2.512-3.98.094-5.967-2.866-5.936-6.95.033-4.419 1.324-8.337 5.814-9.768 7.086-2.259 14.338-3.998 21.731-6.014 1.774 8.224-.559 14.838-7.44 20.22zM609.646 588.99c-9.408.007-18.352.007-27.253.007-.832-8.666 6.611-14.758 12.157-15.906 6.823-1.413 15.843 4.228 17.196 10.743.32 1.537-1.046 3.424-2.1 5.157zM745 598.87c.82-5.255.876-10.347 2.63-14.765 2.967-7.48 9.41-10.652 17.77-10.102 7.55.496 12.091 4.542 14.905 12.663 2.76 7.965 2.2 15.808-.455 23.554-2.67 7.781-9.118 11.416-18.31 10.776-7.688-.535-14.003-5.924-15.478-13.398-.537-2.718-.718-5.506-1.062-8.728z"/></svg>
