<svg xmlns="http://www.w3.org/2000/svg" xml:space="preserve" viewBox="0 0 2000 270"><path fill="none" d="M1494 271H1V1h2000v270h-507M572.767 150.65c1.26-.55 2.52-1.577 3.781-1.58 29.665-.09 59.33-.074 88.995-.059 1.429 0 2.858.165 4.731.28V261.77h53.465V9.295h-53.92v94.59h-97.67V9.383h-52.914V262c14.521 0 28.811.022 43.101-.017 3.128-.009 6.862.721 9.154-.728 1.352-.854.4-5.324.515-8.167.278-6.837.765-13.672.808-20.51.04-6.383-.596-12.77-.553-19.154.07-10.48.638-20.958.645-31.437.008-10.245-.422-20.49-.138-31.337M913.5 217H796.353v-65.294h122.408v-44.77H796.299V53.812h133.34V9.388H743.233V261.74h192.473V217H913.5m281.499-20.5V171c20.952 0 41.27.42 61.558-.192 9.024-.272 18.494-1.226 26.886-4.279 32.65-11.877 47.295-37.3 49.309-68.864.605-9.49-.874-19.365-2.945-28.72-3.751-16.95-12.985-31.115-26.586-41.781-15.146-11.88-33.047-16.196-52.12-16.175-34.819.039-69.638.011-104.457.011h-5.37V261.7h53.725V196.5M417 178.5c0-5.165-.035-10.331.01-15.496.054-6.007 1.039-6.997 6.885-7 19.496-.01 38.992.01 58.489-.01 8.17-.01 12.61-4.394 12.614-12.377.007-10.998-.504-22.028.178-32.983.462-7.421-5.563-12.879-12.946-12.748-19.157.34-38.327-.061-57.486.213-6.357.09-7.772-1.408-7.758-7.755.04-18.663.03-37.326.006-55.99-.009-6.632-3.745-10.334-10.416-10.347-12.664-.024-25.328-.023-37.992 0-7.538.013-11.571 4.053-11.578 11.597-.018 18.663-.002 37.326-.009 55.99-.002 6.164-.21 6.393-6.51 6.399-19.664.019-39.327-.011-58.99.016-8.038.012-12.474 4.53-12.491 12.659-.023 10.498.454 21.022-.143 31.486-.533 9.318 6.458 14.007 14.03 13.92 19.493-.223 38.992.04 58.487-.161 4.359-.045 5.76 1.238 5.71 5.662-.214 18.827-.122 37.659-.073 56.488.019 7.255 4.493 11.866 11.605 11.913 12.33.082 24.663.1 36.993-.008 7.056-.061 11.367-4.524 11.379-11.475.022-12.997.006-25.995.006-39.992M217 163.5V53.787h75.63V9.383H87.235v44.673h75.858v207.64h53.905V163.5M1100.5 262h27.14v-46.307h-123.826V11.273h-52.516V262H1100.5m-1062 0h31.203V9.32H16.296V262H38.5M1881.006 92.377v5.109c-3.623-2.518-6.46-5.15-9.8-6.697-16.274-7.538-34.288.874-42.239 15.16-6.673 11.99-7.512 24.776-4.807 37.706 3.97 18.976 14.904 29.026 35.3 29.323 8.144.118 15.294-2.648 21.374-8.643.724 17.118-4.074 25.512-14.88 26.658-13.606 1.444-20.708-3.19-22.394-14.712h-20.602c.206 11.266 3.924 20.38 13.227 26.75 11.492 7.869 24.306 9.736 37.45 6.404 6.397-1.622 12.661-5.054 18.09-8.922 10.073-7.176 11.861-18.69 12.097-29.845.542-25.63.154-51.28.203-76.921.005-2.811-1.174-3.833-3.912-3.777-5.493.112-10.99-.03-16.482.103-.877.021-1.731.928-2.625 2.304m-204.1 1.046c-.46-.177-.977-.272-1.373-.543-15.223-10.427-37.023-3.877-44.848 13.59-5.593 12.484-6.056 25.285-3.466 38.107 2.673 13.235 9.577 24.235 23.477 28.112 11.53 3.217 22.864 2.642 31.855-7.694l2.047 7.005h20.166V61.297h-22.017v38.725c-2.47-2.817-3.899-4.447-5.842-6.599m-223.484 16.638c4.47-4.346 13.364-5.962 18.925-3.212 2.965 1.466 5.933 3.243 5.624 7.283-.314 4.105-3.166 5.981-6.746 6.71-5.904 1.204-11.903 1.947-17.795 3.197-14.399 3.052-23.267 5.452-26.002 21.266-2.15 12.438 1.177 24.473 16.538 27.723 12.355 2.615 24.094 1.385 33.907-6.294 1.456 1.878 2.649 4.896 4.093 5.022 6.212.54 12.497.23 18.03.23 0-20.705.66-40.782-.286-60.784-.458-9.68-6.2-17.158-16.311-20.516-12.68-4.212-25.236-3.444-37.599.521-10.628 3.409-16.946 14.555-15.262 25.56h19.687c1.008-2.305 1.843-4.217 3.197-6.706m296.054 52.92c1.47 1.332 2.767 2.952 4.436 3.95 16.19 9.683 32.819 10.634 49.146.884 7.098-4.24 11.665-11.145 13.393-19.815-1.368 0-2.38-.114-3.359.018-8.2 1.11-17.127-3.147-24.348 5.322-4.065 4.768-11.394 4.322-16.759 1.42-6.443-3.485-9.857-9.671-9.813-17.87h56.054c-.442-4.574-.714-8.639-1.248-12.669-1.678-12.667-5.667-24.211-17.445-31.082-8.792-5.13-18.268-5.834-28.405-4.314-15.168 2.275-24.318 10.767-29.342 24.737-2.906 8.081-2.12 16.38-1.692 24.598.463 8.901 2.842 17.328 9.382 24.822M1949.555 88c-3.09.334-6.235.406-9.26 1.05-11.574 2.462-20.585 8.363-26.408 19.082-4.96 9.134-5.283 18.853-4.847 28.737.553 12.508 5.928 22.614 15.986 30.128 10.546 7.878 22.847 7.59 34.982 6.725 4.503-.322 9.318-2.198 13.177-4.648 21.11-13.4 22.513-37.925 15.689-56.843-6.317-17.51-20.743-23.803-39.32-24.23M1529 93.492c-.89-1.162-1.73-3.282-2.677-3.331-5.936-.309-11.897-.156-18.032-.156v81.645H1530c0-2.492-.04-4.641.006-6.789.32-14.754.4-29.52 1.079-44.258.48-10.394 8.99-14.37 17.542-13.464 8.16.865 11.162 4.689 11.347 13.12.13 5.994.026 11.993.026 17.99v33.424h23c0-12.626.121-24.93-.043-37.23-.11-8.265-.112-16.59-1.169-24.758-.555-4.283-2.41-9.025-5.18-12.28-8.834-10.38-20.644-11.582-32.736-7.516-5.475 1.841-10.108 6.187-14.872 9.236v-5.633m-179.11 14.923c-2.372 6.758-.015 12.766 4.01 17.778 6.394 7.96 16.208 9.944 25.392 12.786 5.263 1.63 10.752 2.683 15.78 4.837 1.986.85 4.4 4.226 4.093 6.02-.394 2.303-3.11 5.617-5.218 5.942-5.373.83-11.043.795-16.441.03-3.907-.553-7.053-3.163-7.709-7.85-.155-1.109-2.014-2.777-3.142-2.821-6.793-.265-13.601-.132-20.728-.132 1.144 10.435 5.198 18.294 14.11 23.628 10.11 6.051 21.125 5.576 32.138 5.317 7.847-.184 15.016-2.388 21.222-7.633 8.28-6.998 12.004-22.733 4.065-32.551-4.77-5.9-11.496-7.648-18.099-9.697-7.604-2.359-15.469-3.926-22.96-6.574-2.247-.793-4.31-3.827-5.104-6.273-.389-1.196 2.172-3.554 3.706-5.075.68-.674 2.132-.555 3.223-.834 9.525-2.432 14.94.025 19.27 8.54.477.94 1.81 2.016 2.776 2.045 6.116.186 12.24.094 18.29.094 1.547-12.76-6.585-23-18.584-26.049-9.77-2.483-19.702-2.991-29.316-.727-11.423 2.69-17.961 5.2-20.774 19.2M1734 143.5V90.4h-21.744v81.29H1734V143.5m-21.999-70.062v7.183h21.75V61.296H1712v12.142z"/><path fill="#58A6FF" d="M572.506 150.95c-.023 10.547.407 20.792.4 31.037-.008 10.48-.575 20.957-.646 31.437-.043 6.383.593 12.77.553 19.154-.043 6.838-.53 13.673-.808 20.51-.115 2.843.837 7.313-.515 8.167-2.292 1.45-6.026.719-9.154.728-14.29.04-28.58.017-43.101.017V9.382h52.914v94.504h97.67V9.296h53.92v252.473h-53.465V149.292c-1.873-.116-3.302-.28-4.731-.281-29.665-.015-59.33-.031-88.995.059-1.262.003-2.52 1.03-4.042 1.88zM914 217h21.707v44.74H743.234V9.388h186.404v44.425H796.3v53.122h122.462v44.77H796.353V217H914zM1194.999 197v64.699h-53.725V11h5.37c34.819 0 69.638.028 104.457-.01 19.073-.022 36.974 4.295 52.12 16.174 13.6 10.666 22.835 24.83 26.586 41.78 2.07 9.356 3.55 19.23 2.945 28.72-2.014 31.566-16.659 56.988-49.309 68.865-8.392 3.053-17.862 4.007-26.886 4.28-20.288.61-40.606.191-61.558.191v26m86.073-124.51c-3.8-7.363-9.93-12.159-17.72-14.201-6.566-1.722-13.428-2.949-20.194-3.139-15.918-.447-31.857-.143-47.894-.143V128c10.385 0 20.51.13 30.63-.037 10.086-.167 20.222-.096 30.232-1.134 8.357-.867 16.193-4.251 21.504-11.158 10.192-13.254 11.054-27.622 3.442-43.181z"/><path fill="#BF1E2D" d="M417 179c0 13.498.016 26.496-.006 39.493-.012 6.951-4.323 11.414-11.38 11.475-12.33.108-24.661.09-36.992.008-7.112-.047-11.586-4.658-11.605-11.913-.05-18.83-.14-37.66.073-56.488.05-4.424-1.351-5.707-5.71-5.662-19.495.201-38.994-.062-58.488.162-7.571.086-14.562-4.603-14.03-13.92.598-10.465.121-20.99.144-31.487.017-8.129 4.453-12.647 12.491-12.659 19.663-.027 39.326.003 58.99-.016 6.3-.006 6.508-.235 6.51-6.4.007-18.663-.009-37.326.009-55.99.007-7.543 4.04-11.583 11.578-11.597 12.664-.022 25.328-.023 37.992.001 6.67.013 10.407 3.715 10.416 10.348.023 18.663.035 37.326-.006 55.99-.014 6.346 1.401 7.845 7.758 7.754 19.159-.274 38.329.127 57.486-.213 7.383-.131 13.408 5.327 12.946 12.748-.682 10.955-.171 21.985-.178 32.983-.004 7.983-4.445 12.368-12.614 12.376-19.497.02-38.993 0-58.49.011-5.845.003-6.83.993-6.884 7-.045 5.165-.01 10.33-.01 15.996z"/><path fill="#58A6FF" d="M217 164v97.697h-53.906V54.056H87.236V9.383h205.393v44.404H217V164zM1100 262H951.298V11.273h52.516v204.42h123.827V262H1100zM38 262H16.296V9.32h53.407V262H38z"/><path fill="#8B949E" d="M1881.02 91.938c.88-.937 1.734-1.844 2.61-1.865 5.492-.133 10.99.009 16.483-.103 2.738-.056 3.917.966 3.912 3.777-.049 25.642.339 51.291-.203 76.921-.236 11.154-2.024 22.669-12.096 29.845-5.43 3.868-11.694 7.3-18.091 8.922-13.144 3.332-25.958 1.465-37.45-6.404-9.303-6.37-13.021-15.484-13.227-26.75h20.602c1.686 11.521 8.788 16.156 22.394 14.712 10.806-1.146 15.604-9.54 14.88-26.658-6.08 5.995-13.23 8.761-21.373 8.643-20.397-.297-31.33-10.347-35.301-29.323-2.705-12.93-1.866-25.716 4.807-37.706 7.95-14.286 25.965-22.698 42.24-15.16 3.339 1.547 6.176 4.18 9.8 6.697 0-1.71 0-3.41.014-5.548m-1.052 51.2c2.917-8.19 1.947-16.247-.567-24.348-1.887-6.082-6.024-9.804-12.013-10.633-6.918-.958-13.419.207-17.486 7.132-4.3 7.32-4.633 15.034-3.13 23.107 1.203 6.452 4.063 11.86 10.04 14.852 9.139 4.576 17.538.969 23.156-10.11zM1677.162 93.684c1.686 1.89 3.115 3.52 5.585 6.338V61.297h22.017V172h-20.166l-2.047-7.005c-8.99 10.336-20.325 10.91-31.855 7.694-13.9-3.877-20.804-14.877-23.477-28.112-2.59-12.822-2.127-25.623 3.466-38.106 7.825-17.468 29.625-24.018 44.848-13.591.396.27.912.366 1.63.804m-3.793 60.488c.708-.398 1.522-.678 2.11-1.21 10.218-9.249 10.123-20.785 6.428-32.591-1.265-4.041-3.937-8.63-7.346-10.82-9.327-5.993-21.881-1.031-24.39 10.02-1.3 5.723-1.416 11.881-1.048 17.78.69 11.069 9.406 22.752 24.246 16.82zM1453.162 110.35c-1.095 2.2-1.93 4.112-2.938 6.417h-19.687c-1.684-11.005 4.634-22.151 15.262-25.56 12.363-3.965 24.918-4.733 37.599-.521 10.111 3.358 15.853 10.836 16.311 20.516.946 20.002.285 40.079.285 60.785-5.532 0-11.817.31-18.029-.231-1.444-.126-2.637-3.144-4.093-5.022-9.813 7.68-21.552 8.909-33.907 6.294-15.36-3.25-18.689-15.285-16.538-27.723 2.735-15.814 11.603-18.214 26.002-21.266 5.892-1.25 11.891-1.993 17.795-3.196 3.58-.73 6.432-2.606 6.746-6.711.31-4.04-2.659-5.817-5.624-7.283-5.561-2.75-14.455-1.134-19.184 3.5m-.656 31.654c-2.512 3.515-4.809 7.068-2.266 11.579 2.374 4.21 6.34 4.723 10.544 4.395 9.025-.705 19.83-7.66 16.722-24.333-8.198 2.623-16.322 5.223-25 8.359zM1749.224 162.722c-6.289-7.234-8.668-15.66-9.13-24.562-.428-8.218-1.215-16.517 1.69-24.598 5.025-13.97 14.175-22.462 29.343-24.737 10.137-1.52 19.613-.815 28.405 4.314 11.778 6.87 15.767 18.415 17.445 31.082.534 4.03.806 8.095 1.248 12.67h-56.054c-.044 8.198 3.37 14.384 9.813 17.87 5.365 2.901 12.694 3.347 16.76-1.421 7.22-8.47 16.147-4.212 24.347-5.322.979-.132 1.99-.018 3.359-.018-1.728 8.67-6.295 15.576-13.393 19.815-16.327 9.75-32.956 8.799-49.146-.884-1.669-.998-2.966-2.618-4.687-4.21m18.24-51.693-5.553 11.538h32.972c-.651-8.455-4.667-14.153-12.415-16.222-5.27-1.407-10.469-.103-15.005 4.684zM1950.027 88c18.104.428 32.53 6.721 38.847 24.23 6.824 18.919 5.42 43.444-15.689 56.844-3.859 2.45-8.674 4.326-13.177 4.648-12.135.865-24.436 1.153-34.982-6.725-10.058-7.514-15.433-17.62-15.986-30.128-.436-9.884-.114-19.603 4.847-28.737 5.823-10.72 14.834-16.62 26.409-19.082 3.024-.644 6.17-.716 9.731-1.05m-9.347 65.13c1.173.51 2.303 1.302 3.525 1.485 9.856 1.482 17.393 1.172 21.689-6.702 5.853-10.727 5.866-21.854.119-32.835-5.23-9.99-24.674-10.237-30.253-.81-3.722 6.286-3.733 12.707-3.78 19.424-.052 7.525 1.761 14.185 8.7 19.438zM1529 93.937v5.189c4.764-3.05 9.397-7.395 14.872-9.236 12.092-4.066 23.902-2.863 32.736 7.516 2.77 3.255 4.625 7.997 5.18 12.28 1.057 8.168 1.059 16.493 1.169 24.758.164 12.3.043 24.604.043 37.23h-23V138.25c0-5.997.105-11.996-.026-17.99-.185-8.431-3.187-12.255-11.347-13.12-8.553-.906-17.063 3.07-17.542 13.464-.68 14.738-.759 29.504-1.079 44.258-.046 2.148-.006 4.297-.006 6.789h-21.71V90.006c6.135 0 12.096-.153 18.032.156.948.05 1.788 2.169 2.678 3.775zM1349.936 107.996c2.767-13.579 9.305-16.088 20.728-18.779 9.614-2.264 19.545-1.756 29.316.727 12 3.05 20.131 13.29 18.584 26.05-6.05 0-12.174.09-18.29-.095-.966-.03-2.299-1.105-2.777-2.045-4.329-8.515-9.744-10.972-19.269-8.54-1.091.28-2.542.16-3.223.834-1.534 1.52-4.095 3.88-3.706 5.075.795 2.446 2.857 5.48 5.104 6.273 7.491 2.648 15.356 4.215 22.96 6.574 6.603 2.049 13.33 3.797 18.1 9.697 7.938 9.818 4.214 25.553-4.066 32.55-6.206 5.246-13.375 7.45-21.222 7.634-11.013.259-22.028.734-32.138-5.317-8.912-5.334-12.966-13.193-14.11-23.628 7.127 0 13.935-.133 20.728.132 1.128.044 2.987 1.712 3.142 2.821.656 4.687 3.802 7.297 7.709 7.85 5.398.765 11.068.8 16.44-.03 2.11-.325 4.825-3.64 5.22-5.943.306-1.793-2.108-5.169-4.094-6.02-5.028-2.153-10.517-3.207-15.78-4.836-9.184-2.842-18.998-4.826-25.391-12.786-4.026-5.012-6.383-11.02-3.965-18.198zM1734 144v27.69h-21.744V90.4H1734V144zM1712.001 72.952V61.296h21.75V80.62H1712v-7.67z"/><path fill="none" d="M1281.322 72.778c7.362 15.271 6.5 29.64-3.692 42.893-5.311 6.907-13.147 10.29-21.504 11.158-10.01 1.038-20.146.967-30.232 1.134-10.12.168-20.245.037-30.63.037V55.007c16.037 0 31.976-.304 47.894.143 6.766.19 13.628 1.417 20.194 3.139 7.79 2.042 13.92 6.838 17.97 14.49zM1879.798 143.495c-5.447 10.722-13.846 14.329-22.986 9.753-5.976-2.992-8.836-8.4-10.038-14.852-1.504-8.073-1.17-15.787 3.129-23.107 4.067-6.925 10.568-8.09 17.486-7.132 5.989.829 10.126 4.55 12.013 10.633 2.514 8.1 3.484 16.158.396 24.705zM1673.074 154.433c-14.544 5.67-23.26-6.013-23.95-17.082-.368-5.899-.252-12.057 1.048-17.78 2.509-11.051 15.063-16.013 24.39-10.02 3.41 2.19 6.081 6.779 7.346 10.82 3.695 11.806 3.79 23.342-6.429 32.591-.587.532-1.4.812-2.405 1.47zM1452.784 141.734c8.4-2.867 16.524-5.467 24.722-8.09 3.109 16.672-7.697 23.628-16.722 24.333-4.205.328-8.17-.185-10.544-4.395-2.543-4.51-.246-8.064 2.544-11.848zM1767.732 110.764c4.267-4.523 9.466-5.827 14.736-4.42 7.748 2.07 11.764 7.767 12.415 16.222h-32.972c2.013-4.183 3.783-7.86 5.821-11.802zM1940.389 152.877c-6.648-5-8.461-11.66-8.409-19.185.047-6.717.058-13.138 3.78-19.425 5.58-9.426 25.024-9.18 30.253.811 5.747 10.981 5.734 22.108-.12 32.835-4.295 7.874-11.832 8.184-21.688 6.702-1.222-.183-2.352-.975-3.816-1.738z"/></svg>
