<?xml version="1.0" encoding="UTF-8"?>
<svg xmlns="http://www.w3.org/2000/svg" viewBox="60 300 960 520" version="1.2">
  <rect x="0" y="0" width="1080" height="1080" fill="#000000"/>
  <!--
    Wordmark spacing controls (adjust these translate() X values in small steps like 4–8 units):
      - IT group:    translate(0,0)
      - PLUS group:  translate(-18,0)  (tighten IT↔PLUS)
      - HELP group:  translate(-20,0)  (loosen PLUS↔HELP)
    These are pure path translations; geometry is unchanged.
  -->
  <g id="wordmark-it" transform="translate(0,0)">
    <path fill="#86B8FF" d="M165 358.992h109.014v29.12h-50.365v138.443h-35.12V388.338h-50.355v-29.346H165z"></path>
    <path fill="#86B8FF" d="M94.948 423v-63.707h34.729V526.51h-34.73V423z"></path>
  </g>
  <g id="wordmark-plus" transform="translate(-18,0)">
    <path fill="#D94B4B" d="M343.481 365.049c1.98-4.632 5.395-6.094 9.786-6.065 8.5.056 17-.03 25.5.03 7.373.052 10.368 2.982 10.398 10.277.061 14.666.009 29.333.028 44 .008 6.108.472 6.567 6.5 6.572 14.5.013 29-.02 43.5.016 7.915.02 10.766 2.917 10.8 10.892.034 8.166.033 16.333 0 24.5-.032 7.746-3.097 10.724-10.972 10.728-14.667.006-29.334.114-43.999-.067-4.35-.054-5.932 1.54-5.89 5.842.145 14.665.08 29.332.045 43.999-.018 7.758-3.164 11.005-10.818 11.08-8.333.08-16.668.108-25-.013-7.044-.102-10.301-3.485-10.324-10.584-.047-14.833-.132-29.667.058-44.498.055-4.295-1.285-5.9-5.722-5.837-14.997.21-29.999.098-44.999.071-6.541-.011-9.963-3.126-10.096-9.648a650.818 650.818 0 0 1 .004-26.998c.133-6.29 3.437-9.407 9.816-9.446 15-.09 30.002-.181 44.998.056 4.634.074 6.053-1.473 6.016-6.05-.132-16.157.11-32.315.371-48.857z"></path>
  </g>
  <g id="wordmark-help" transform="translate(-20,0)">
    <g id="wordmark-help-h" transform="translate(0,0)">
      <path fill="#86B8FF" d="M493.318 508.998v17.585h-34.88V359.288h34.72v62.559h65.496v-62.54h35.234v167.212h-34.855v-74.696h-65.715v57.175z"></path>
    </g>
    <g id="wordmark-help-elp" transform="translate(4,0)">
      <g id="wordmark-help-e" transform="translate(0,0)">
        <path fill="#86B8FF" d="M668 526.84h-65.776V359.264h122.46v28.884H636.2v36.007h81.562v29.563h-81.561v43.023h92.49v30.099H668z"></path>
      </g>
      <g id="wordmark-help-lp" transform="translate(8,0)">
        <path fill="#86B8FF" d="M859.202 450v-91.004h5.595c22.83 0 45.66-.04 68.489.011 21.96.049 39.087 9.177 48.196 29.32 9.52 21.049 8.205 41.906-7.211 60.339-10.053 12.02-23.711 16.779-38.966 17.113-13.465.295-26.943.062-40.906.062v60.75h-35.197V450m96.638-32.158c.094-1.16.23-2.319.275-3.48.555-14.627-6.154-24.013-20.717-25.423-13.439-1.302-27.103-.277-40.835-.277v48.101c13.659 0 27.115.563 40.5-.176 10.912-.603 17.93-7.096 20.777-18.745z"></path>
        <path fill="#86B8FF" d="M851.171 511.998V526.6H733.294V359.241h34.78v136.93h83.097v15.827z"></path>
      </g>
    </g>
  </g>
  <path fill="#9CA3AF" d="M723.891 629.959c-.229-15.166 3.558-28.38 13.744-39.44 12.91-14.017 39.459-18.864 55.168 1.232v-10.523h25.771v4.779c-.001 30.15-.032 60.302.007 90.453.022 17.616-5.991 31.942-22.177 40.608-17.493 9.366-50.02 9.82-65.775-12.03-4.643-6.44-6.786-13.575-6.653-21.838h22.944c5.32 15.144 13.024 20.092 27.202 17.41 15.487-2.928 19.832-10.796 18.675-34.602-8.817 11.671-20.837 13.309-33.604 11.5-18.862-2.673-30.766-15.176-34.111-35.16-.657-3.923-.8-7.933-1.19-12.389m34.098-24.529c-1.783 2.75-4.129 5.29-5.245 8.288-3.463 9.294-3.602 18.879-.728 28.359 3.115 10.274 11.412 16.487 20.815 16.002 9.76-.503 18.621-7.955 19.891-18.468.878-7.266.653-14.99-.823-22.149-3.4-16.486-19.493-22.217-33.91-12.032z"></path>
  <path fill="#9CA3AF" d="M545.61 582.222c4.181 3.294 8.037 6.406 12.067 9.658v-46.068h24.975v130.962h-24.326v-9.405c-7.08 8.107-15.45 12.193-25.643 12.394-17.269.342-30.091-7.389-37.045-22.971-8.625-19.327-8.684-39.231.713-58.401 9.032-18.425 30.628-25.303 49.26-16.17m10.578 31.316c-4.306-10.289-10.69-14.359-21.195-13.514-9.219.742-16.167 6.473-17.918 16.563-1.229 7.083-1.504 14.575-.683 21.71 1.008 8.752 5.335 16.21 14.187 19.566 11.94 4.526 24.415-3.818 27.381-17.983 1.817-8.673.736-17.172-1.772-26.342zM262.005 593.144c7.623-10.483 18.4-14.157 30.223-14.547 8.241-.271 16.704.254 24.767 1.898 13.259 2.703 22.024 12.929 22.633 28.136.906 22.593.235 45.25.235 68.51-7.155 0-14.305.426-21.332-.312-1.668-.175-2.928-4.25-4.56-6.82-5.89 5.043-13.346 8.686-21.947 9.528-9.6.94-19.09.558-27.527-4.753-10.587-6.662-11.63-17.155-10.408-28.246 1.114-10.1 6.126-17.958 15.852-21.146 8.949-2.933 18.416-4.277 27.64-6.38 3.72-.848 7.745-1.229 10.99-2.997 2.37-1.292 5.002-4.437 5.13-6.881.144-2.748-1.657-7.015-3.898-8.21-7.347-3.92-15.573-4.748-22.79.079-3.259 2.179-5.008 6.614-8.05 10.879h-21.875c-.374-6.717 1.455-12.737 4.917-18.738m52.616 47.788v-9.465c-7.309 1.841-14.377 3.526-21.385 5.435-2.702.736-5.443 1.67-7.855 3.055-5.26 3.022-7.464 9.001-5.778 14.607 1.482 4.928 5.818 7.472 12.307 7.222 11.816-.455 20.733-8.359 22.71-20.854z"></path>
  <path fill="#9CA3AF" d="M630.615 657.298c-6.727-15.932-7.73-32.025-3.265-48.206 5.84-21.16 26.197-33.209 49.28-30.735 25.928 2.778 36.552 20.544 39.305 43.503.53 4.415.65 8.878.997 13.868h-65.64c-1.207 9.744 5.044 20.183 13.432 23.061 9.563 3.281 19.132-.438 24.807-9.789 7.702 0 15.522-.006 23.34.011.634.002 1.266.164 1.901.251-2.13 14.05-16.415 27.297-32.041 29.7-23.182 3.564-44.262-3.982-52.116-21.664m57.735-47.848c-4.893-8.655-13.983-12.784-22.59-10.261-8.785 2.574-14.399 10.657-14.093 20.391h38.947c-.678-3.414-1.277-6.43-2.264-10.13z"></path>
  <path fill="#9CA3AF" d="M853.973 676.09c-18.923-8.43-29.138-26.15-28.37-48.275.614-17.628 6.047-32.962 21.903-42.32 17.022-10.046 35.118-10.062 52.54-1.353 16.488 8.242 22.923 23.331 23.91 41.028.77 13.844-1.586 27.045-10.776 37.948-13.617 16.155-31.518 19.116-51.236 15.419-2.59-.486-5.073-1.535-7.971-2.446m.059-62.246c-3.134 10.145-3.154 20.352.022 30.428 2.924 9.278 10.018 13.898 20.61 14.059 10.742.163 18.137-4.533 21.386-13.74 3.079-8.722 2.974-17.678 1.123-26.568-2.336-11.222-8.1-16.571-18.53-17.92-11.39-1.473-19.234 2.715-24.611 13.74z"></path>
  <path fill="#9CA3AF" d="M206.82 640.04c-9.152-2.69-18.081-4.835-26.612-8.04-14.899-5.597-21.15-16.732-18.156-31.274 2.268-11.016 9.84-17.183 20.09-20.004 13.069-3.597 26.38-3.695 39.425.127 14.206 4.163 20.692 13.015 21.894 28.881h-23.858c-4.766-11.28-16.986-16.116-28.44-10.775-2.161 1.008-4.878 4.109-4.715 6.02.223 2.613 2.415 6.258 4.72 7.263 6.506 2.835 13.48 4.615 20.306 6.684 5.88 1.783 11.918 3.1 17.7 5.148 8.402 2.978 15.174 8.02 16.66 17.501 1.74 11.094-.025 21.447-9.314 28.936-11.719 9.449-25.71 10.163-39.855 9.027-8.98-.722-17.831-2.475-25.295-8.17-8.069-6.157-13.144-13.937-13.405-24.826h25.46c4.93 12.77 20.533 18.515 32.895 11.507 2.252-1.277 4.304-4.848 4.393-7.431.081-2.369-2.1-5.548-4.22-7.07-2.58-1.855-6.137-2.352-9.674-3.503z"></path>
  <path fill="#9CA3AF" d="M376.07 592.078c13.841-19.162 42.756-16.106 52.97-4.89 4.584 5.035 7.714 10.783 7.8 17.378.316 23.951.125 47.909.125 72.227H411.76c0-3.417.016-6.7-.003-9.984-.098-17.147-.248-34.293-.294-51.44-.038-13.942-8.541-16.9-21.687-14.703-8.781 1.468-13.55 7.132-13.87 16.453-.598 17.296-.457 34.617-.616 51.928-.022 2.474-.003 4.948-.003 7.762h-24.961v-95.704h23.797c0 3.698-.035 7.153.076 10.604.008.242 1.101.45 1.872.369z"></path>
  <path fill="#9CA3AF" d="M592.143 587.132v-5.773h25.355v95.9h-25.355v-90.127z"></path>
  <path fill="#9CA3AF" d="M592.13 550.184c.79-1.767 1.54-4.142 2.378-4.174 7.585-.29 15.186-.17 23.362-.17v23.454h-25.74v-19.11z"></path>
</svg>
